<svg width="30" height="25" viewBox="0 0 30 25" fill="none" xmlns="http://www.w3.org/2000/svg">
<path d="M4.34325 22.4745V12.477C4.42172 12.838 4.61006 13.1519 4.86118 13.4187L14.7489 23.4005C15.1255 23.7772 15.565 23.9655 16.0201 23.9655C17.0246 23.9655 17.7466 23.2593 17.7466 22.2862C17.7466 21.784 17.5425 21.3602 17.2129 21.0306L14.0583 17.8289L9.50682 13.7012L12.8184 13.8581H27.3204C28.3719 13.8581 29.0939 13.1519 29.0939 12.116C29.0939 11.0801 28.3719 10.3582 27.3204 10.3582H12.8184L9.52252 10.5151L14.0583 6.40311L17.2129 3.18569C17.5268 2.87179 17.7466 2.43234 17.7466 1.93011C17.7466 0.972726 17.0246 0.250767 16.0201 0.250767C15.565 0.250767 15.1255 0.439104 14.7489 0.815779L4.86118 10.8133C4.61006 11.0801 4.42172 11.394 4.34325 11.7393V1.77316C4.34325 0.800084 3.6056 0.078125 2.61683 0.078125C1.64375 0.078125 0.906097 0.800084 0.906097 1.77316V22.4745C0.906097 23.4476 1.64375 24.1539 2.61683 24.1539C3.6056 24.1539 4.34325 23.4476 4.34325 22.4745Z" fill="#FA8B20"/>
</svg>
