<svg width="100" height="63" viewBox="0 0 100 63" fill="none" xmlns="http://www.w3.org/2000/svg">
<g clip-path="url(#clip0_818_6169)">
<path d="M45.9081 28.3754C43.7909 27.8344 42.4691 26.4838 42.2934 24.8466C42.176 23.7483 42.978 22.746 44.0274 22.6795C45.0654 22.6139 45.8655 23.3626 45.8995 24.5118C45.9367 25.7617 45.9081 27.0132 45.9081 28.3754Z" fill="white"/>
<path d="M57.5837 25.0655C57.2213 26.8985 55.9515 27.8925 53.9627 28.576C53.9627 27.1258 53.9353 25.9209 53.9701 24.7184C54.0069 23.4653 54.9291 22.5688 55.9922 22.6851C57.1019 22.8065 57.8272 23.8323 57.5837 25.0655Z" fill="white"/>
<path d="M51.314 14.1777C50.5992 14.9368 49.3659 14.9607 48.6519 14.2287C47.6769 13.2315 48.0225 12.2205 49.9111 10.6796C51.8721 12.0815 52.2823 13.1483 51.314 14.1777Z" fill="white"/>
<path d="M68.9771 33.1211C68.916 36.6753 66.2896 39.6918 62.8674 40.1373C60.6219 40.4298 58.4996 39.8172 56.8921 38.4133C55.317 37.0372 54.421 35.0596 54.3694 32.844C54.3408 31.6148 54.5146 31.04 55.6681 30.6618C57.6451 30.0134 59.0957 28.6691 59.8633 26.774C60.261 25.7912 60.3843 24.7582 60.2203 23.7873C60.0535 22.8017 59.6042 21.9523 58.92 21.3305C58.2225 20.6956 57.4479 20.3003 56.6169 20.1562C55.8004 20.0149 54.9483 20.1184 54.0844 20.4655C52.2123 21.2171 51.3081 22.7767 51.3962 25.1021C51.4298 25.981 51.422 26.8556 51.413 27.7811C51.4107 28.0541 51.4083 28.3336 51.4063 28.6162H48.6226C48.623 28.4586 48.6238 28.3025 48.6249 28.1465C48.6265 27.9514 48.6285 27.7576 48.63 27.5641C48.6382 26.6621 48.6461 25.8095 48.6249 24.9457C48.6214 24.7901 48.6163 24.6348 48.6108 24.4792C48.5619 23.1807 48.0445 22.0307 47.1544 21.2405C46.2185 20.4106 44.9413 20.0292 43.5577 20.1674C42.3595 20.2864 41.2984 20.8966 40.5704 21.8862C39.8196 22.906 39.5265 24.224 39.7656 25.501C40.2208 27.9315 41.7027 29.7101 43.9389 30.5094C45.3366 31.0093 45.5457 31.6801 45.5057 33.0912C45.3946 37.0364 42.3728 40.1018 38.4771 40.2213C36.4679 40.2822 34.5034 39.527 33.0857 38.1486C31.7834 36.8827 31.0519 35.2041 31.0257 33.4232C30.8977 24.6424 30.8984 16.9455 31.0292 9.89383C31.0742 7.44536 32.3475 5.2417 34.4357 3.99895C36.5967 2.71282 39.2274 2.6766 41.4722 3.90342C42.311 4.36198 43.1373 4.95788 43.9506 5.61587C44.7636 6.27427 45.5641 6.99476 46.3504 7.70291C46.8311 8.136 47.2902 8.54958 47.7486 8.94565C47.4256 9.26927 47.1963 9.52204 47.0518 9.71391C46.058 11.0335 45.5539 12.1787 45.5116 13.2156C45.4682 14.2824 45.8999 15.239 46.8311 16.1386C48.4394 17.693 51.1621 17.7679 52.9 16.3058C54.0461 15.3425 54.5028 14.3163 54.3396 13.0755C54.1932 11.9669 53.5533 10.7055 52.2753 9.0181C52.6491 8.67815 53.0237 8.33423 53.3885 7.99946C54.4465 7.02859 55.5409 6.02428 56.649 5.07292C59.203 2.8804 62.0752 2.4302 64.9549 3.77126C67.5973 5.00087 68.9571 7.24116 68.9958 10.4296C69.0185 12.2647 69.0135 14.132 69.0088 15.9376C69.0072 16.6696 69.0048 17.4013 69.0048 18.1329C69.0045 19.5997 69.0092 21.0901 69.0139 22.5323C69.026 26.0041 69.0381 29.5942 68.9771 33.1211Z" fill="white"/>
<path d="M34.4361 3.99887C36.5971 2.71273 39.2278 2.67651 41.4726 3.90333C42.3114 4.3619 43.1377 4.95779 43.9511 5.61579C44.764 6.27418 45.5645 6.99467 46.3508 7.70282C46.8315 8.13591 47.2906 8.54949 47.749 8.94557C47.8554 8.83888 47.9721 8.72464 48.0993 8.60164C48.5162 8.20159 49.041 7.72034 49.6591 7.17141C49.7585 7.08384 49.856 6.99746 49.9511 6.91347C48.4457 5.531 46.7775 4.00325 45.3148 2.7187C42.423 0.179476 38.5558 -0.644509 34.9708 0.515439C33.3487 1.04008 31.8786 1.95761 30.7196 3.16891C29.4768 4.46738 28.6247 6.03853 28.1867 7.83856C28.0486 8.40341 27.9777 9.04588 27.9761 9.74806C27.9722 11.8267 27.9624 13.9408 27.9531 15.9853C27.9272 21.664 27.9002 27.5358 27.9918 33.3116C28.0818 38.9979 32.5518 43.258 38.4078 43.2576C38.4403 43.2576 38.4743 43.2576 38.5072 43.2572C41.1677 43.2353 43.6751 42.18 45.5684 40.2845C47.4609 38.3897 48.5459 35.8485 48.6238 33.1289C48.6344 32.7504 48.6316 32.3742 48.6285 31.9766C48.6281 31.9256 48.6277 31.8746 48.6277 31.8229C48.6265 31.6788 48.6254 31.5319 48.6254 31.3799V29.06L48.6226 28.7037C48.6226 28.675 48.6226 28.6456 48.623 28.6169C48.6234 28.4593 48.6242 28.3032 48.6254 28.1472C48.6269 27.9522 48.6289 27.7583 48.6304 27.5648C48.6387 26.6628 48.6465 25.8102 48.6254 24.9464C48.6218 24.7908 48.6167 24.6355 48.6113 24.4799C48.5623 23.1814 48.0449 22.0314 47.1548 21.2413C46.2189 20.4113 44.9417 20.03 43.5581 20.1681C42.3599 20.2871 41.2988 20.8973 40.5708 21.8869C39.82 22.9067 39.5269 24.2247 39.766 25.5017C40.2212 27.9323 41.7031 29.7108 43.9393 30.5101C45.3371 31.0101 45.5461 31.6808 45.5062 33.0919C45.395 37.0371 42.3733 40.1026 38.4775 40.222C36.4683 40.2829 34.5038 39.5278 33.0861 38.1493C31.7839 36.8834 31.0523 35.2048 31.0261 33.4239C30.8981 24.6431 30.8989 16.9462 31.0296 9.89454C31.075 7.44528 32.3483 5.24161 34.4361 3.99887ZM42.2934 24.8465C42.1764 23.7486 42.978 22.7463 44.0274 22.6798C45.0654 22.6142 45.8655 23.3625 45.8995 24.5121C45.9367 25.7616 45.9081 27.0131 45.9081 28.3749C43.791 27.8343 42.4688 26.4837 42.2934 24.8465Z" fill="#00C4D4"/>
<path d="M71.9882 9.75446C71.9604 7.70326 71.4148 5.89726 70.3662 4.38622C69.3278 2.89071 67.824 1.72359 65.8954 0.917919C61.9817 -0.71612 58.1728 -0.144505 54.8814 2.57106C53.6813 3.56024 52.5489 4.59441 51.3496 5.68907L51.1876 5.83675C51.1574 5.86422 51.0482 5.95896 50.9097 6.07877C50.6862 6.27223 50.3413 6.57078 49.9515 6.91351C49.8564 6.9971 49.7589 7.08348 49.6595 7.17145C49.0411 7.72037 48.5166 8.20163 48.0997 8.60168C47.9725 8.72428 47.8558 8.83892 47.7494 8.9456C47.4265 9.26923 47.1971 9.522 47.0527 9.71386C46.0589 11.0334 45.5547 12.1787 45.5124 13.2156C45.469 14.2824 45.9007 15.2389 46.8319 16.1386C48.4402 17.693 51.1629 17.7678 52.9008 16.3057C54.0469 15.3424 54.5037 14.3162 54.3404 13.0755C54.1941 11.9669 53.5541 10.7054 52.2761 9.01805C52.6499 8.67811 53.0245 8.33418 53.3893 7.99942C54.4473 7.02855 55.5417 6.02424 56.6498 5.07287C59.2038 2.88036 62.076 2.43015 64.9557 3.77122C67.5981 5.00082 68.9579 7.24111 68.9966 10.4296C69.0193 12.2646 69.0142 14.1319 69.0096 15.9375C69.008 16.6696 69.0056 17.4012 69.0056 18.1328C69.0052 19.5997 69.0099 21.09 69.0146 22.5322C69.026 26.0037 69.0381 29.5938 68.9771 33.121C68.916 36.6753 66.2896 39.6918 62.8674 40.1372C60.6219 40.4298 58.4996 39.8172 56.8921 38.4132C55.317 37.0371 54.4211 35.0596 54.3694 32.844C54.3408 31.6148 54.5146 31.04 55.6681 30.6618C57.6452 30.0134 59.0958 28.6691 59.8633 26.7739C60.261 25.7911 60.3843 24.7582 60.2203 23.7873C60.0536 22.8017 59.6042 21.9522 58.92 21.3305C58.2225 20.6956 57.4479 20.3003 56.6169 20.1562C55.8004 20.0149 54.9483 20.1184 54.0845 20.4655C52.2123 21.217 51.3081 22.7766 51.3962 25.1021C51.4299 25.981 51.422 26.8555 51.413 27.781C51.4107 28.0541 51.4083 28.3335 51.4064 28.6162H48.6226C48.6222 28.6448 48.6222 28.6743 48.6222 28.7029L48.625 29.0592V31.3791C48.625 31.5312 48.6258 31.678 48.6273 31.8221H51.3422C51.3496 31.9766 51.3563 32.1302 51.3625 32.2803C51.3896 32.9104 51.415 33.5055 51.4815 34.1122C51.7771 36.7955 53.0452 39.189 55.0528 40.8517C56.9422 42.4165 59.4034 43.2648 62.0271 43.2648C62.1801 43.2648 62.3339 43.2616 62.4882 43.256C63.7215 43.2099 64.9326 42.9157 66.0876 42.3815C67.2047 41.8648 68.2165 41.1491 69.0945 40.2547C70.9236 38.3909 71.951 35.9791 71.9874 33.4641C72.099 25.852 72.099 17.8749 71.9882 9.75446ZM51.3136 14.1777C50.5989 14.9368 49.3659 14.9607 48.6516 14.2291C47.677 13.2315 48.0226 12.2208 49.9108 10.68C51.8718 12.0815 52.2824 13.1483 51.3136 14.1777ZM53.9627 28.5764C53.9627 27.1262 53.9349 25.9213 53.9702 24.7188C54.0073 23.4657 54.9291 22.5692 55.9922 22.6855C57.1019 22.8065 57.8276 23.8323 57.5833 25.0659C57.2209 26.8985 55.9515 27.8925 53.9627 28.5764Z" fill="#FA8B20"/>
<path d="M89.8282 55.7289C89.4364 54.8086 88.7875 54.0331 87.9737 53.4858C87.5666 53.2119 87.1181 52.9954 86.6398 52.8473C86.1611 52.6988 85.653 52.6196 85.1297 52.6196C85.1293 52.6196 85.1289 52.6196 85.1289 52.6196C84.4314 52.6196 83.7601 52.7609 83.1499 53.0181C82.2355 53.4034 81.457 54.0451 80.9039 54.8599C80.6272 55.2675 80.4068 55.7181 80.2565 56.2006C80.1054 56.683 80.0244 57.1965 80.0244 57.7256V57.7271C80.0244 60.5386 82.3048 62.8311 85.1285 62.8311H85.1289C87.9443 62.8319 90.2314 60.5486 90.2337 57.7299V57.7252C90.2337 57.0206 90.0893 56.3427 89.8282 55.7289ZM85.1285 60.389C83.6313 60.3886 82.4277 59.1944 82.4262 57.7271V57.7244C82.4262 57.3573 82.5001 57.0142 82.6344 56.6982C82.8352 56.2249 83.1761 55.8137 83.6086 55.5235C83.8243 55.3782 84.0627 55.2627 84.3175 55.1839C84.5723 55.1055 84.8435 55.0625 85.1285 55.0625C85.5086 55.0625 85.8644 55.1382 86.1884 55.2747C86.6746 55.4789 87.0887 55.8224 87.3772 56.2476C87.5212 56.4601 87.6347 56.693 87.7122 56.9402C87.7893 57.1874 87.8312 57.4497 87.8312 57.7252C87.8304 59.2075 86.612 60.389 85.1285 60.389Z" fill="#183A44"/>
<path d="M100 59.6099V59.6115C100 61.3224 98.686 62.7275 96.4389 62.7275C95.146 62.7275 94.1025 62.3355 93.0543 61.6619C92.6496 61.4653 92.3693 61.0457 92.3693 60.5585H92.3697C92.3697 59.8842 92.9075 59.3373 93.571 59.3373C93.8121 59.3373 94.0364 59.4093 94.2242 59.5339L94.2293 59.5259C94.8994 59.973 95.5476 60.2843 96.4389 60.2843C96.9704 60.2843 97.5967 60.1521 97.5979 59.6115C97.599 59.0276 96.2334 58.8377 95.8498 58.7553C94.1268 58.3568 92.6605 57.4931 92.6543 55.7042V55.6727H92.6539C92.6539 53.0013 95.319 51.9998 97.81 52.8839C98.214 53.028 98.5921 53.2051 98.9396 53.3879V53.3883C99.3988 53.6295 99.589 54.0005 99.589 54.4734C99.589 55.1477 99.0512 55.6946 98.3881 55.6946H98.387C98.3713 55.6946 98.3556 55.6942 98.34 55.6934C98.1631 55.6863 97.9955 55.6401 97.846 55.5633C97.3924 55.3666 96.9051 55.0585 96.0674 55.0195C95.0936 54.9737 94.9914 55.3937 95.0564 55.6934C95.1135 55.9546 95.5555 56.1297 95.7347 56.1942C96.5246 56.4772 100 56.8044 100 59.6099Z" fill="#183A44"/>
<path d="M77.89 61.2452C77.89 61.5521 77.7785 61.8332 77.5941 62.0477C77.4102 62.2627 77.1538 62.4112 76.8633 62.4542C74.0995 62.8677 72.5652 61.264 72.5605 58.9946V54.8261H71.8297C71.1663 54.8261 70.6284 54.2792 70.6284 53.6049C70.6284 52.9302 71.1663 52.3832 71.8297 52.3832H72.5605V50.0741H72.5609C72.5609 49.3994 73.0987 48.8524 73.7621 48.8524C74.4252 48.8524 74.9634 49.3994 74.9634 50.0741V50.0765L74.963 52.3832H76.5843C77.2689 52.3832 77.8239 52.9302 77.8239 53.6049C77.8239 54.2792 77.2689 54.8261 76.5843 54.8261H74.9626L74.9618 59.0599C74.9607 60.0081 75.5701 60.1769 76.5044 60.0387C76.5075 60.0383 76.5099 60.0379 76.513 60.0375C76.5134 60.0375 76.5142 60.0375 76.5142 60.0375C76.5713 60.0288 76.6297 60.0248 76.6888 60.0248C77.3522 60.024 77.89 60.5705 77.89 61.2452Z" fill="#183A44"/>
<path d="M68.3281 53.847V61.2282C68.3281 61.9379 67.7598 62.5159 67.0615 62.5159C66.3636 62.5159 65.7952 61.9379 65.7952 61.2282V53.847C65.7952 53.1368 66.3636 52.5588 67.0615 52.5588C67.7598 52.5588 68.3281 53.1364 68.3281 53.847Z" fill="#183A44"/>
<path d="M68.3281 50.143C68.3281 50.8531 67.7598 51.4311 67.0615 51.4311C66.3636 51.4311 65.7952 50.8531 65.7952 50.143C65.7952 49.4332 66.3636 48.8552 67.0615 48.8552C67.7598 48.8552 68.3281 49.4332 68.3281 50.143Z" fill="#183A44"/>
<path d="M61.5844 52.7021C61.0113 52.7021 60.5326 53.1101 60.4128 53.6563H60.4125C59.5615 52.9752 58.5219 52.6066 57.4412 52.6066V52.607C57.4412 52.607 57.4408 52.6066 57.4404 52.6066C57.44 52.6066 57.4397 52.607 57.4389 52.607V52.6066C53.9474 52.6066 51.6165 56.3034 52.9552 59.5981C53.7008 61.4336 55.445 62.6851 57.44 62.6851C57.4404 62.6851 57.4408 62.6851 57.4408 62.6851H57.4424C57.9657 62.6851 58.4902 62.5979 58.9936 62.4227C59.4969 62.2472 59.9792 61.9837 60.4187 61.631H60.4191C60.5487 62.1632 61.0211 62.5581 61.5848 62.5581C62.2482 62.5581 62.786 62.0111 62.786 61.3364V53.9238C62.7856 53.2494 62.2482 52.7021 61.5844 52.7021ZM57.4404 60.2426C56.0807 60.2418 54.9784 59.0822 54.9784 57.646C54.9788 56.2158 56.0756 55.0507 57.4397 55.0499C57.44 55.0499 57.44 55.0499 57.4404 55.0499C58.2788 55.0503 59.0265 55.4909 59.4754 56.1839C60.5909 57.9048 59.4128 60.2414 57.4404 60.2426Z" fill="#183A44"/>
<path d="M50.436 50.2684C50.436 49.5941 49.8978 49.0471 49.2348 49.0471C48.5713 49.0471 48.0335 49.5941 48.0335 50.2684V53.384C47.2644 52.884 46.3747 52.6161 45.4494 52.6161C43.7823 52.6161 42.2914 53.4903 41.4103 54.8485C39.2583 58.1679 41.5399 62.695 45.4509 62.695C46.4123 62.695 47.3427 62.404 48.1396 61.8559C48.3279 62.2798 48.7471 62.5752 49.2344 62.5752C49.8974 62.5752 50.4356 62.0283 50.4356 61.354C50.4356 61.3512 50.4352 61.3488 50.4352 61.346H50.4356V50.2684H50.436ZM45.4513 60.2513C44.0947 60.2509 42.9893 59.0938 42.9893 57.6552C42.9897 55.0988 46.1289 54.0977 47.4867 56.1931C48.6018 57.9143 47.4229 60.2509 45.4513 60.2513Z" fill="#183A44"/>
<path d="M38.5358 61.1019C38.5389 61.1401 38.5405 61.1751 38.5405 61.2082C38.5405 61.931 37.9624 62.5186 37.2519 62.5186C36.6127 62.5186 36.0683 62.0322 35.9775 61.3972H35.9681L35.9638 61.3085V56.8399C35.9638 56.6556 35.9364 56.474 35.8824 56.3005C35.554 55.2484 34.5883 54.9065 33.7773 55.0343C32.9784 55.16 32.1713 55.7671 32.1705 56.8399V61.2066C32.1705 61.931 31.5928 62.5186 30.882 62.5186C30.172 62.5186 29.5942 61.931 29.5942 61.2082V53.6661C29.5942 52.9432 30.172 52.3557 30.882 52.3557C31.3098 52.3557 31.6997 52.5647 31.9412 52.9194C33.346 52.1603 34.9982 52.1981 36.3779 53.0241C37.7299 53.8337 38.5385 55.2572 38.5397 56.8331L38.5401 56.8399C38.5401 56.8737 38.5385 56.9091 38.5354 56.9473V61.1019H38.5358Z" fill="#183A44"/>
<path d="M25.7439 52.7021C25.1708 52.7021 24.6921 53.1101 24.572 53.6563H24.5716C23.721 52.9752 22.681 52.6066 21.6011 52.6066V52.607C21.6011 52.607 21.6007 52.6066 21.6003 52.6066C21.5999 52.6066 21.5995 52.607 21.5988 52.607V52.6066C18.1073 52.6066 15.7764 56.3034 17.1151 59.5981C17.8599 61.4336 19.6041 62.6851 21.5999 62.6851C21.6003 62.6851 21.6003 62.6851 21.6007 62.6851H21.6019C22.1256 62.6851 22.6497 62.5979 23.1535 62.4227C23.6568 62.2472 24.1391 61.9837 24.5786 61.631C24.6436 61.8969 24.7943 62.129 24.999 62.2938C25.2037 62.459 25.4624 62.5577 25.7446 62.5577C26.4077 62.5577 26.9459 62.0108 26.9459 61.336V53.9234C26.9451 53.2494 26.4069 52.7021 25.7439 52.7021ZM21.5999 60.2426C20.2401 60.2418 19.1379 59.0822 19.1379 57.646C19.1383 56.2158 20.2347 55.0507 21.5991 55.0499C21.5991 55.0499 21.5995 55.0499 21.5999 55.0499C22.4383 55.0503 23.186 55.4909 23.6349 56.1839C24.7504 57.9048 23.5723 60.2414 21.5999 60.2426Z" fill="#183A44"/>
<path d="M14.1513 50.4626V61.084C14.1513 61.5944 14.0198 61.99 13.756 62.2707C13.4929 62.5513 13.1039 62.6914 12.5891 62.6914C12.0873 62.6914 11.7018 62.5509 11.4317 62.2707C11.162 61.99 11.0274 61.5944 11.0274 61.084V55.1896L8.39276 59.8592C8.21663 60.1402 8.03188 60.3504 7.83773 60.4905C7.64281 60.631 7.38291 60.7011 7.05647 60.7011C6.74294 60.7011 6.48578 60.631 6.28498 60.4905C6.08419 60.3504 5.90257 60.1402 5.73935 59.8592L3.12351 55.2664V61.0844C3.12351 61.5948 2.99199 61.9904 2.72818 62.2711C2.46514 62.5517 2.07608 62.6918 1.56136 62.6918C1.05957 62.6918 0.67402 62.5513 0.403942 62.2711C0.134647 61.9904 0 61.5948 0 61.084V50.4626C0 49.9395 0.14365 49.5411 0.432516 49.2668C0.72099 48.9926 1.12885 48.8552 1.65569 48.8552C2.08234 48.8552 2.42718 48.9412 2.69099 49.1136C2.95442 49.2859 3.1924 49.5701 3.40611 49.965L7.11361 56.7591L10.8207 49.965C11.047 49.5697 11.2881 49.2859 11.5452 49.1136C11.8024 48.9412 12.1504 48.8552 12.5895 48.8552C13.0788 48.8552 13.4612 48.9926 13.7376 49.2668C14.0131 49.5411 14.1513 49.9399 14.1513 50.4626Z" fill="#183A44"/>
</g>
<defs>
<clipPath id="clip0_818_6169">
<rect width="100" height="62.8319" fill="white"/>
</clipPath>
</defs>
</svg>
