<svg width="26" height="27" viewBox="0 0 26 27" fill="none" xmlns="http://www.w3.org/2000/svg">
<path d="M13 26.4762C20.094 26.4762 25.9701 20.6126 25.9701 13.506C25.9701 6.41201 20.094 0.535889 12.9874 0.535889C5.89341 0.535889 0.0298462 6.41201 0.0298462 13.506C0.0298462 20.6126 5.90596 26.4762 13 26.4762ZM13.0125 13.8702C12.435 13.8702 12.0332 13.4558 12.0332 12.8657V7.3788C12.0332 6.78868 12.435 6.37434 13.0125 6.37434C13.5901 6.37434 13.9919 6.78868 13.9919 7.3788V12.8657C13.9919 13.4558 13.5901 13.8702 13.0125 13.8702ZM13.0125 20.2736C9.30859 20.2736 6.24497 17.1974 6.24497 13.506C6.24497 11.6729 7.02343 9.86485 8.3669 8.63438C9.3337 7.68014 10.7023 9.03617 9.72293 10.0155C8.75613 10.9321 8.21623 12.1626 8.21623 13.506C8.21623 16.1804 10.3507 18.3149 13.0125 18.3149C15.6744 18.3149 17.8089 16.1804 17.8089 13.506C17.8089 12.1626 17.2564 10.9321 16.3022 10.0281C15.3228 9.04872 16.6788 7.6927 17.6582 8.63438C19.0017 9.87741 19.7801 11.6854 19.7801 13.506C19.7801 17.1974 16.7165 20.2736 13.0125 20.2736Z" fill="#EB5757"/>
</svg>
