<svg width="80" height="80" viewBox="0 0 80 80" fill="none" xmlns="http://www.w3.org/2000/svg">
<path d="M39.9807 80C61.9043 80 80 61.8956 80 40C80 18.1044 61.8656 0 39.942 0C18.057 0 0 18.1044 0 40C0 61.8956 18.0957 80 39.9807 80ZM26.7956 56.8665C24.7463 56.8665 23.1223 55.2418 23.1223 53.1528C23.1223 52.2244 23.5089 51.2959 24.2436 50.5996L34.7608 40.0387L24.2436 29.5164C23.5089 28.8201 23.1223 27.8917 23.1223 26.9632C23.1223 24.8743 24.7463 23.2882 26.7956 23.2882C27.8782 23.2882 28.7289 23.6364 29.4248 24.3327L39.9807 34.8549L50.5752 24.294C51.3485 23.559 52.1605 23.2108 53.2044 23.2108C55.2537 23.2108 56.8777 24.8356 56.8777 26.8859C56.8777 27.853 56.4911 28.7041 55.7564 29.4778L45.2392 40.0387L55.7564 50.5609C56.4524 51.2959 56.8391 52.1857 56.8391 53.1528C56.8391 55.2418 55.2151 56.8665 53.1271 56.8665C52.0831 56.8665 51.1938 56.4797 50.4592 55.7834L39.9807 45.2998L29.5022 55.7834C28.8062 56.5184 27.8782 56.8665 26.7956 56.8665Z" fill="#EB5757"/>
</svg>
